<?xml version="1.0" encoding="UTF-8"?>
<svg id="Layer_2" data-name="Layer 2" xmlns="http://www.w3.org/2000/svg" viewBox="0 0 444.76 444.76">
  <defs>
    <style>
      .cls-1 {
        fill: #00a651;
        stroke-width: 0px;
      }
    </style>
  </defs>
  <g id="Layer_5" data-name="Layer 5">
    <g>
      <path class="cls-1" d="M444.76,0v52.65c-.5,7.73-2.78,14.98-6.44,21.34-8.22,14.31-23.41,24.11-40.94,24.78h-51.4v.21h-123.55s0,0,0,0c-1.39-.21-2.78-.18-4.16-.14-7.01.23-13.88,1.05-20.55,2.4-18.25,3.7-35.05,11.43-49.42,22.22-.01,0-.02.01-.03.02-9.38,7.04-17.73,15.39-24.77,24.78-5.69,7.58-10.53,15.84-14.38,24.64-3.44,7.87-6.09,16.16-7.84,24.78-1.35,6.67-2.17,13.54-2.4,20.55-.05,1.36-.13,4.09-.13,4.09v123.68h123.73c1.27,0,2.53-.02,3.79-.06.11,0,.21,0,.32-.01,7.04-.23,13.93-1.05,20.62-2.4,18.27-3.71,35.08-11.44,49.46-22.24.07-.05.14-.1.21-.16,9.32-7.02,17.61-15.33,24.61-24.66,5.73-7.63,10.6-15.95,14.46-24.8h-140.4c-17.47-.66-32.62-10.4-40.86-24.62-3.57-6.16-5.84-13.16-6.45-20.63v-53.51h296.5v56.3c-.18,6.03-.6,12-1.25,17.89-.92,8.36-2.31,16.58-4.13,24.64-1.91,8.45-4.31,16.72-7.16,24.78-2.99,8.46-6.47,16.68-10.42,24.64-4.26,8.59-9.06,16.86-14.36,24.78-3.78,5.66-7.82,11.13-12.09,16.41-2.27,2.8-4.61,5.55-7.01,8.23-7.99,8.94-16.68,17.23-26,24.78-5.27,4.27-10.75,8.31-16.41,12.09-6.81,4.56-13.89,8.75-21.21,12.55-9.06,4.7-18.48,8.8-28.21,12.23-15.74,5.56-32.28,9.4-49.42,11.29-5.9.65-11.87,1.07-17.89,1.25H0v-229.19c.18-6.03.6-12,1.25-17.89.93-8.41,2.33-16.68,4.17-24.78,1.91-8.4,4.29-16.63,7.12-24.64,3-8.51,6.51-16.78,10.49-24.78,4.24-8.54,9.02-16.77,14.29-24.64,3.78-5.66,7.82-11.13,12.09-16.41,2.31-2.85,4.68-5.64,7.13-8.37,7.95-8.88,16.61-17.13,25.88-24.64,5.27-4.28,10.75-8.31,16.41-12.09,6.89-4.61,14.06-8.85,21.48-12.68,8.97-4.64,18.31-8.69,27.94-12.09,15.74-5.56,32.28-9.4,49.42-11.29,5.9-.65,11.87-1.07,17.89-1.25h229.19Z"/>
      <path class="cls-1" d="M444.76,0v52.65c-.5,7.73-2.78,14.98-6.44,21.34-8.22,14.31-23.41,24.11-40.94,24.78h-51.4v.21h-123.55s0,0,0,0c-1.39-.21-2.78-.18-4.16-.14-7.01.23-13.88,1.05-20.55,2.4-18.25,3.7-35.05,11.43-49.42,22.22-.01,0-.02.01-.03.02-9.38,7.04-17.73,15.39-24.77,24.78-5.69,7.58-10.53,15.84-14.38,24.64-3.44,7.87-6.09,16.16-7.84,24.78-1.35,6.67-2.17,13.54-2.4,20.55-.05,1.36-.13,4.09-.13,4.09v123.68h123.73c1.27,0,2.53-.02,3.79-.06.11,0,.21,0,.32-.01,7.04-.23,13.93-1.05,20.62-2.4,18.27-3.71,35.08-11.44,49.46-22.24.07-.05.14-.1.21-.16,9.32-7.02,17.61-15.33,24.61-24.66,5.73-7.63,10.6-15.95,14.46-24.8h-140.4c-17.47-.66-32.62-10.4-40.86-24.62-3.57-6.16-5.84-13.16-6.45-20.63v-53.51h296.5v56.3c-.18,6.03-.6,12-1.25,17.89-.92,8.36-2.31,16.58-4.13,24.64-1.91,8.45-4.31,16.72-7.16,24.78-2.99,8.46-6.47,16.68-10.42,24.64-4.26,8.59-9.06,16.86-14.36,24.78-3.78,5.66-7.82,11.13-12.09,16.41-2.27,2.8-4.61,5.55-7.01,8.23-7.99,8.94-16.68,17.23-26,24.78-5.27,4.27-10.75,8.31-16.41,12.09-6.81,4.56-13.89,8.75-21.21,12.55-9.06,4.7-18.48,8.8-28.21,12.23-15.74,5.56-32.28,9.4-49.42,11.29-5.9.65-11.87,1.07-17.89,1.25H0v-229.19c.18-6.03.6-12,1.25-17.89.93-8.41,2.33-16.68,4.17-24.78,1.91-8.4,4.29-16.63,7.12-24.64,3-8.51,6.51-16.78,10.49-24.78,4.24-8.54,9.02-16.77,14.29-24.64,3.78-5.66,7.82-11.13,12.09-16.41,2.31-2.85,4.68-5.64,7.13-8.37,7.95-8.88,16.61-17.13,25.88-24.64,5.27-4.28,10.75-8.31,16.41-12.09,6.89-4.61,14.06-8.85,21.48-12.68,8.97-4.64,18.31-8.69,27.94-12.09,15.74-5.56,32.28-9.4,49.42-11.29,5.9-.65,11.87-1.07,17.89-1.25h229.19Z"/>
    </g>
  </g>
</svg>